<svg width="180" height="48" viewBox="0 0 180 48" fill="none" xmlns="http://www.w3.org/2000/svg">
<path d="M10.404 37.896C8.604 37.896 6.972 37.5 5.508 36.708C4.044 35.916 2.892 34.824 2.052 33.432C1.212 32.04 0.792 30.48 0.792 28.752C0.792 27 1.212 25.44 2.052 24.072C2.916 22.68 4.08 21.588 5.544 20.796C7.008 20.004 8.652 19.608 10.476 19.608C11.844 19.608 13.092 19.848 14.22 20.328C15.372 20.784 16.392 21.48 17.28 22.416L13.752 25.944C13.344 25.488 12.864 25.152 12.312 24.936C11.784 24.72 11.172 24.612 10.476 24.612C9.684 24.612 8.976 24.792 8.352 25.152C7.752 25.488 7.272 25.968 6.912 26.592C6.576 27.192 6.408 27.9 6.408 28.716C6.408 29.532 6.576 30.252 6.912 30.876C7.272 31.5 7.764 31.992 8.388 32.352C9.012 32.712 9.708 32.892 10.476 32.892C11.196 32.892 11.832 32.772 12.384 32.532C12.96 32.268 13.452 31.908 13.86 31.452L17.352 34.98C16.44 35.94 15.408 36.672 14.256 37.176C13.104 37.656 11.82 37.896 10.404 37.896ZM27.8055 37.896C26.0055 37.896 24.3735 37.5 22.9095 36.708C21.4695 35.892 20.3295 34.788 19.4895 33.396C18.6495 32.004 18.2295 30.444 18.2295 28.716C18.2295 26.988 18.6495 25.44 19.4895 24.072C20.3295 22.704 21.4695 21.624 22.9095 20.832C24.3495 20.016 25.9815 19.608 27.8055 19.608C29.6295 19.608 31.2615 20.004 32.7015 20.796C34.1415 21.588 35.2815 22.68 36.1215 24.072C36.9615 25.44 37.3815 26.988 37.3815 28.716C37.3815 30.444 36.9615 32.004 36.1215 33.396C35.2815 34.788 34.1415 35.892 32.7015 36.708C31.2615 37.5 29.6295 37.896 27.8055 37.896ZM27.8055 32.892C28.5975 32.892 29.2935 32.724 29.8935 32.388C30.4935 32.028 30.9495 31.536 31.2615 30.912C31.5975 30.264 31.7655 29.532 31.7655 28.716C31.7655 27.9 31.5975 27.192 31.2615 26.592C30.9255 25.968 30.4575 25.488 29.8575 25.152C29.2815 24.792 28.5975 24.612 27.8055 24.612C27.0375 24.612 26.3535 24.792 25.7535 25.152C25.1535 25.488 24.6855 25.968 24.3495 26.592C24.0135 27.216 23.8455 27.936 23.8455 28.752C23.8455 29.544 24.0135 30.264 24.3495 30.912C24.6855 31.536 25.1535 32.028 25.7535 32.388C26.3535 32.724 27.0375 32.892 27.8055 32.892ZM48.5477 37.896C46.7477 37.896 45.1157 37.5 43.6517 36.708C42.2117 35.892 41.0717 34.788 40.2317 33.396C39.3917 32.004 38.9717 30.444 38.9717 28.716C38.9717 26.988 39.3917 25.44 40.2317 24.072C41.0717 22.704 42.2117 21.624 43.6517 20.832C45.0917 20.016 46.7237 19.608 48.5477 19.608C50.3717 19.608 52.0037 20.004 53.4437 20.796C54.8837 21.588 56.0237 22.68 56.8637 24.072C57.7037 25.44 58.1237 26.988 58.1237 28.716C58.1237 30.444 57.7037 32.004 56.8637 33.396C56.0237 34.788 54.8837 35.892 53.4437 36.708C52.0037 37.5 50.3717 37.896 48.5477 37.896ZM48.5477 32.892C49.3397 32.892 50.0357 32.724 50.6357 32.388C51.2357 32.028 51.6917 31.536 52.0037 30.912C52.3397 30.264 52.5077 29.532 52.5077 28.716C52.5077 27.9 52.3397 27.192 52.0037 26.592C51.6677 25.968 51.1997 25.488 50.5997 25.152C50.0237 24.792 49.3397 24.612 48.5477 24.612C47.7797 24.612 47.0957 24.792 46.4957 25.152C45.8957 25.488 45.4277 25.968 45.0917 26.592C44.7557 27.216 44.5877 27.936 44.5877 28.752C44.5877 29.544 44.7557 30.264 45.0917 30.912C45.4277 31.536 45.8957 32.028 46.4957 32.388C47.0957 32.724 47.7797 32.892 48.5477 32.892ZM72.0619 37.5L65.9419 28.428L72.0259 20.004H78.1819L70.8379 29.472L71.0179 27.204L78.5419 37.5H72.0619ZM60.8659 37.5V11.364H66.3739V37.5H60.8659ZM88.3848 37.896C86.4888 37.896 84.7968 37.512 83.3088 36.744C81.8448 35.952 80.6928 34.86 79.8528 33.468C79.0128 32.076 78.5928 30.504 78.5928 28.752C78.5928 27 79.0008 25.44 79.8168 24.072C80.6568 22.68 81.7848 21.588 83.2008 20.796C84.6168 20.004 86.2128 19.608 87.9888 19.608C89.7168 19.608 91.2408 19.98 92.5608 20.724C93.8808 21.468 94.9128 22.5 95.6568 23.82C96.4248 25.14 96.8088 26.652 96.8088 28.356C96.8088 28.668 96.7848 29.004 96.7368 29.364C96.7128 29.7 96.6528 30.096 96.5568 30.552L81.4728 30.588V26.808L94.2168 26.772L91.8408 28.356C91.8168 27.348 91.6608 26.52 91.3728 25.872C91.0848 25.2 90.6528 24.696 90.0768 24.36C89.5248 24 88.8408 23.82 88.0248 23.82C87.1608 23.82 86.4048 24.024 85.7568 24.432C85.1328 24.816 84.6408 25.368 84.2808 26.088C83.9448 26.808 83.7768 27.684 83.7768 28.716C83.7768 29.748 83.9568 30.636 84.3168 31.38C84.7008 32.1 85.2288 32.664 85.9008 33.072C86.5968 33.456 87.4128 33.648 88.3488 33.648C89.2128 33.648 89.9928 33.504 90.6888 33.216C91.3848 32.904 91.9968 32.448 92.5248 31.848L95.5488 34.872C94.6848 35.88 93.6408 36.636 92.4168 37.14C91.1928 37.644 89.8488 37.896 88.3848 37.896ZM106.919 37.86C105.263 37.86 103.787 37.464 102.491 36.672C101.219 35.88 100.211 34.8 99.4674 33.432C98.7474 32.064 98.3874 30.504 98.3874 28.752C98.3874 27 98.7474 25.44 99.4674 24.072C100.211 22.704 101.219 21.624 102.491 20.832C103.787 20.04 105.263 19.644 106.919 19.644C108.119 19.644 109.199 19.872 110.159 20.328C111.143 20.784 111.947 21.42 112.571 22.236C113.219 23.028 113.579 23.94 113.651 24.972V32.352C113.579 33.384 113.231 34.32 112.607 35.16C111.983 35.976 111.179 36.636 110.195 37.14C109.211 37.62 108.119 37.86 106.919 37.86ZM107.891 32.892C108.683 32.892 109.367 32.724 109.943 32.388C110.519 32.028 110.975 31.536 111.311 30.912C111.647 30.288 111.815 29.568 111.815 28.752C111.815 27.936 111.647 27.228 111.311 26.628C110.999 26.004 110.543 25.512 109.943 25.152C109.367 24.792 108.695 24.612 107.927 24.612C107.159 24.612 106.475 24.792 105.875 25.152C105.299 25.512 104.831 26.004 104.471 26.628C104.135 27.252 103.967 27.96 103.967 28.752C103.967 29.544 104.135 30.252 104.471 30.876C104.807 31.5 105.275 31.992 105.875 32.352C106.475 32.712 107.147 32.892 107.891 32.892ZM116.999 37.5H111.599V32.784L112.427 28.536L111.491 24.288V11.364H116.999V37.5Z" fill="#BB4D00"/>
<path fill-rule="evenodd" clip-rule="evenodd" d="M156.961 5.52118C158.463 4.61796 160.416 4.57394 162.084 5.77994C167.405 9.62872 173.5 16.4894 173.5 26.2222C173.5 33.835 170.229 38.7304 166.065 41.67C163.507 43.476 160.646 44.5218 158.066 45.0516C157.115 45.3744 156.2 45.5 155.467 45.5C155.261 45.5 155.042 45.492 154.812 45.4748C154.484 45.492 154.169 45.5 153.867 45.5C150.945 45.5 146.627 44.5316 143.008 41.612C139.325 38.6406 136.5 33.7542 136.5 26.2222C136.5 20.0688 139.751 15.9304 142.81 13.5965C144.084 12.6249 145.61 12.6087 146.818 13.2681C147.986 13.9059 148.805 15.1352 148.953 16.5792L149.124 18.2548C149.19 18.8989 149.519 19.4334 149.864 19.6937C150.025 19.8158 150.156 19.8541 150.243 19.8607C150.317 19.8662 150.431 19.8563 150.601 19.7458C151.907 18.897 152.899 17.3701 153.567 15.5733C154.228 13.7931 154.5 11.9333 154.5 10.6667V10.0195C154.5 8.07392 155.489 6.40588 156.961 5.52118ZM157.263 42.1532C156.411 42.319 155.598 42.4202 154.854 42.4676C153.887 42.3696 152.667 42.0394 151.648 41.3408C150.479 40.5388 149.5 39.213 149.5 36.889C149.5 34.0844 151.235 31.9544 153.08 30.59C153.085 30.6102 153.088 30.6356 153.088 30.6668V30.6886C153.088 31.144 153.088 31.8332 153.174 32.55C153.259 33.263 153.443 34.1396 153.895 34.9106C154.21 35.448 154.694 35.9026 155.352 36.0962C155.998 36.2866 156.614 36.1666 157.094 35.94C158.006 35.509 158.658 34.6094 158.931 33.6606C159.756 34.3318 160.5 35.3814 160.5 36.889C160.5 39.296 159.605 40.629 158.625 41.3972C158.195 41.734 157.725 41.98 157.263 42.1532ZM163.035 40.045C163.477 39.7928 163.911 39.518 164.335 39.219C167.726 36.8252 170.5 32.8318 170.5 26.2222C170.5 17.8478 165.256 11.7764 160.325 8.21086C159.676 7.7412 159.027 7.7795 158.506 8.09238C157.955 8.42376 157.5 9.1056 157.5 10.0195V10.6667C157.5 12.2839 157.166 14.4978 156.379 16.6177C155.598 18.721 154.299 20.9208 152.236 22.2612C150.768 23.2154 149.184 22.9412 148.054 22.0864C146.987 21.2794 146.283 19.9571 146.14 18.5605L145.968 16.8849C145.917 16.3808 145.643 16.0448 145.38 15.9012C145.157 15.7793 144.913 15.7657 144.63 15.9817C142.095 17.9152 139.5 21.2494 139.5 26.2222C139.5 32.9124 141.964 36.915 144.892 39.277C145.687 39.9184 146.526 40.4466 147.374 40.8762C146.828 39.7776 146.5 38.4564 146.5 36.889C146.5 32.682 149.14 29.7434 151.396 28.1042C152.422 27.359 153.655 27.3814 154.596 27.951C155.504 28.5008 156.088 29.5178 156.088 30.6668C156.088 31.1364 156.09 31.667 156.153 32.1938C156.163 32.28 156.175 32.3628 156.188 32.442C156.508 31.705 157.097 31.1332 157.794 30.831C158.63 30.4684 159.694 30.4758 160.582 31.1438C161.981 32.196 163.5 34.0848 163.5 36.889C163.5 38.0766 163.332 39.1254 163.035 40.045Z" fill="#BB4D00" stroke="#BB4D00" stroke-width="2"/>
</svg>
