<svg width="37" height="41" viewBox="0 0 37 41" fill="none" xmlns="http://www.w3.org/2000/svg">
<path fill-rule="evenodd" clip-rule="evenodd" d="M20.4606 0.663634C21.963 -0.239586 23.916 -0.283606 25.5836 0.922394C30.9054 4.77117 37 11.6319 37 21.3647C37 28.9775 33.7292 33.8729 29.565 36.8125C27.0066 38.6185 24.1464 39.6643 21.5662 40.1941C20.6154 40.5169 19.7 40.6425 18.9666 40.6425C18.7612 40.6425 18.542 40.6345 18.3116 40.6173C17.984 40.6345 17.6686 40.6425 17.3666 40.6425C14.4449 40.6425 10.1273 39.6741 6.50818 36.7545C2.825 33.7831 0 28.8967 0 21.3647C0 15.2113 3.25072 11.0729 6.31014 8.73897C7.58384 7.76733 9.11018 7.75115 10.318 8.41059C11.486 9.04835 12.3046 10.2777 12.4525 11.7216L12.6242 13.3973C12.6902 14.0413 13.0195 14.5759 13.3635 14.8361C13.525 14.9582 13.656 14.9966 13.7433 15.0031C13.8169 15.0087 13.9312 14.9988 14.1013 14.8883C15.4074 14.0394 16.3992 12.5126 17.0666 10.7157C17.7276 8.93551 18 7.07571 18 5.80917V5.16191C18 3.21637 18.9888 1.54833 20.4606 0.663634ZM20.7628 37.2957C19.9114 37.4615 19.0984 37.5627 18.3544 37.6101C17.3866 37.5121 16.167 37.1819 15.1483 36.4833C13.9788 35.6813 13 34.3555 13 32.0315C13 29.2269 14.7351 27.0969 16.5796 25.7325C16.5846 25.7527 16.5882 25.7781 16.5882 25.8093V25.8311C16.5882 26.2865 16.5882 26.9757 16.674 27.6925C16.7592 28.4055 16.9428 29.2821 17.3948 30.0531C17.7098 30.5905 18.1942 31.0451 18.8516 31.2387C19.4978 31.4291 20.1136 31.3091 20.5936 31.0825C21.5056 30.6515 22.1576 29.7519 22.4314 28.8031C23.2556 29.4743 24 30.5239 24 32.0315C24 34.4385 23.105 35.7715 22.1248 36.5397C21.695 36.8765 21.2248 37.1225 20.7628 37.2957ZM26.5352 35.1875C26.9768 34.9353 27.4114 34.6605 27.835 34.3615C31.2262 31.9677 34 27.9743 34 21.3647C34 12.9902 28.7558 6.91889 23.8254 3.35331C23.176 2.88365 22.5266 2.92195 22.0062 3.23483C21.455 3.56621 21 4.24805 21 5.16191V5.80917C21 7.42637 20.6662 9.64027 19.8788 11.7602C19.0976 13.8635 17.7988 16.0633 15.736 17.4037C14.2678 18.3579 12.6842 18.0837 11.5539 17.2289C10.4869 16.4219 9.78288 15.0996 9.6398 13.703L9.46816 12.0273C9.41652 11.5232 9.14334 11.1873 8.88032 11.0437C8.657 10.9218 8.4129 10.9081 8.12968 11.1242C5.59516 13.0577 3 16.3919 3 21.3647C3 28.0549 5.4639 32.0575 8.39182 34.4195C9.1869 35.0609 10.026 35.5891 10.874 36.0187C10.3277 34.9201 10 33.5989 10 32.0315C10 27.8245 12.6403 24.8859 14.8961 23.2467C15.9218 22.5015 17.1546 22.5239 18.0958 23.0935C19.0044 23.6433 19.5882 24.6603 19.5882 25.8093C19.5882 26.2789 19.5896 26.8095 19.6526 27.3363C19.663 27.4225 19.6746 27.5053 19.6876 27.5845C20.008 26.8475 20.5968 26.2757 21.294 25.9735C22.1304 25.6109 23.194 25.6183 24.0824 26.2863C25.4814 27.3385 27 29.2273 27 32.0315C27 33.2191 26.832 34.2679 26.5352 35.1875Z" fill="#BB4D00"/>
</svg>
